<svg width="35" height="35" viewBox="0 0 35 35" fill="none" xmlns="http://www.w3.org/2000/svg">
<g clip-path="url(#clip0_1_28)">
<path d="M17.5 7.28437C14.6968 7.19576 11.9726 8.22066 9.92303 10.135C7.87342 12.0493 6.66519 14.6973 6.5625 17.5C6.66519 20.3027 7.87342 22.9507 9.92303 24.865C11.9726 26.7793 14.6968 27.8042 17.5 27.7156C20.3032 27.8042 23.0274 26.7793 25.077 24.865C27.1266 22.9507 28.3348 20.3027 28.4375 17.5C28.3348 14.6973 27.1266 12.0493 25.077 10.135C23.0274 8.22066 20.3032 7.19576 17.5 7.28437ZM17.5 24.9813C15.4218 25.0704 13.3927 24.3338 11.8558 22.9321C10.3189 21.5304 9.39897 19.5776 9.29688 17.5C9.39897 15.4224 10.3189 13.4696 11.8558 12.0679C13.3927 10.6662 15.4218 9.92957 17.5 10.0187C19.5782 9.92957 21.6073 10.6662 23.1442 12.0679C24.6811 13.4696 25.601 15.4224 25.7031 17.5C25.601 19.5776 24.6811 21.5304 23.1442 22.9321C21.6073 24.3338 19.5782 25.0704 17.5 24.9813ZM16.0344 0H18.7687V4.375H16.0344V0ZM16.0344 30.625H18.7687V35H16.0344V30.625ZM30.625 16.0344H35V18.7687H30.625V16.0344ZM0 16.0344H4.375V18.7687H0V16.0344ZM26.075 5.25H30.45V7.98438H26.075V5.25ZM4.41875 26.9063H8.79375V29.6406H4.41875V26.9063ZM27.0156 26.075H29.75V30.45H27.0156V26.075ZM5.35938 4.41875H8.09375V8.79375H5.35938V4.41875Z" fill="white"/>
</g>
<defs>
<clipPath id="clip0_1_28">
<rect width="35" height="35" fill="white"/>
</clipPath>
</defs>
</svg>
