<svg width="35" height="35" viewBox="0 0 35 35" fill="none" xmlns="http://www.w3.org/2000/svg">
<path d="M14.5834 29.1666H4.37508C3.98831 29.1666 3.61737 29.013 3.34388 28.7395C3.07039 28.466 2.91675 28.0951 2.91675 27.7083C2.91675 27.3215 3.07039 26.9506 3.34388 26.6771C3.61737 26.4036 3.98831 26.25 4.37508 26.25H14.5834C14.9702 26.25 15.3411 26.4036 15.6146 26.6771C15.8881 26.9506 16.0417 27.3215 16.0417 27.7083C16.0417 28.0951 15.8881 28.466 15.6146 28.7395C15.3411 29.013 14.9702 29.1666 14.5834 29.1666ZM14.5834 11.6666H4.37508C3.98831 11.6666 3.61737 11.513 3.34388 11.2395C3.07039 10.966 2.91675 10.5951 2.91675 10.2083C2.91675 9.82152 3.07039 9.45059 3.34388 9.1771C3.61737 8.9036 3.98831 8.74996 4.37508 8.74996H14.5834C14.9702 8.74996 15.3411 8.59631 15.6146 8.32282C15.8881 8.04933 16.0417 7.6784 16.0417 7.29163C16.0417 6.90485 15.8881 6.53392 15.6146 6.26043C15.3411 5.98694 14.9702 5.83329 14.5834 5.83329C14.1966 5.83329 13.8257 5.67965 13.5522 5.40616C13.2787 5.13267 13.1251 4.76173 13.1251 4.37496C13.1251 3.98819 13.2787 3.61725 13.5522 3.34376C13.8257 3.07027 14.1966 2.91663 14.5834 2.91663C15.7437 2.91663 16.8565 3.37756 17.677 4.19803C18.4975 5.01851 18.9584 6.1313 18.9584 7.29163C18.9584 8.45195 18.4975 9.56475 17.677 10.3852C16.8565 11.2057 15.7437 11.6666 14.5834 11.6666Z" fill="white"/>
<path d="M23.3334 32.0833C22.9466 32.0833 22.5757 31.9297 22.3022 31.6562C22.0287 31.3827 21.8751 31.0118 21.8751 30.625C21.8751 30.2382 22.0287 29.8673 22.3022 29.5938C22.5757 29.3203 22.9466 29.1667 23.3334 29.1667C24.107 29.1667 24.8488 28.8594 25.3958 28.3124C25.9428 27.7654 26.2501 27.0235 26.2501 26.25C26.2501 25.4764 25.9428 24.7346 25.3958 24.1876C24.8488 23.6406 24.107 23.3333 23.3334 23.3333H4.37508C3.98831 23.3333 3.61737 23.1797 3.34388 22.9062C3.07039 22.6327 2.91675 22.2618 2.91675 21.875C2.91675 21.4882 3.07039 21.1173 3.34388 20.8438C3.61737 20.5703 3.98831 20.4167 4.37508 20.4167H23.3334C24.8805 20.4167 26.3642 21.0312 27.4582 22.1252C28.5522 23.2192 29.1667 24.7029 29.1667 26.25C29.1667 27.7971 28.5522 29.2808 27.4582 30.3748C26.3642 31.4688 24.8805 32.0833 23.3334 32.0833ZM25.5209 17.5H4.37508C3.98831 17.5 3.61737 17.3464 3.34388 17.0729C3.07039 16.7994 2.91675 16.4284 2.91675 16.0417C2.91675 15.6549 3.07039 15.284 3.34388 15.0105C3.61737 14.737 3.98831 14.5833 4.37508 14.5833H25.5209C26.4878 14.5833 27.4152 14.1992 28.0989 13.5155C28.7826 12.8318 29.1667 11.9044 29.1667 10.9375C29.1667 9.97056 28.7826 9.04323 28.0989 8.35951C27.4152 7.67578 26.4878 7.29167 25.5209 7.29167C25.1341 7.29167 24.7632 7.13802 24.4897 6.86453C24.2162 6.59104 24.0626 6.22011 24.0626 5.83333C24.0626 5.44656 24.2162 5.07563 24.4897 4.80214C24.7632 4.52865 25.1341 4.375 25.5209 4.375C27.2614 4.375 28.9306 5.0664 30.1613 6.29711C31.392 7.52782 32.0834 9.19702 32.0834 10.9375C32.0834 12.678 31.392 14.3472 30.1613 15.5779C28.9306 16.8086 27.2614 17.5 25.5209 17.5Z" fill="white"/>
</svg>
